<?xml version="1.0" encoding="UTF-8" standalone="no"?>
<svg
  xmlns:dc="http://purl.org/dc/elements/1.1/"
  xmlns:cc="http://creativecommons.org/ns#"
  xmlns:rdf="http://www.w3.org/1999/02/22-rdf-syntax-ns#"
  xmlns:svg="http://www.w3.org/2000/svg"
  xmlns="http://www.w3.org/2000/svg"
  viewBox="0 0 192 192"
  height="192"
  width="192"
  xml:space="preserve"
  id="svg2"
  version="1.1"
>
  <metadata id="metadata8">
    <rdf:RDF
      ><cc:Work rdf:about=""
        ><dc:format>image/svg+xml</dc:format
        ><dc:type
          rdf:resource="http://purl.org/dc/dcmitype/StillImage"/></cc:Work
    ></rdf:RDF>
  </metadata>
  <defs id="defs6">
    <clipPath id="clipPath18" clipPathUnits="userSpaceOnUse">
      <path id="path16" d="M 0,144 H 144 V 0 H 0 Z" />
    </clipPath>
  </defs>
  <g transform="matrix(1.3333333,0,0,-1.3333333,0,192)" id="g10">
    <g id="g12">
      <g clip-path="url(#clipPath18)" id="g14">
        <g transform="translate(137.3696,71.9111)" id="g20">
          <path
            id="path22"
            style="fill:#e51b24;fill-opacity:1;fill-rule:nonzero;stroke:none"
            d="M 0,0 C -0.005,2.82 2.251,5.102 5.036,5.109 4.837,7.956 4.474,10.763 3.959,13.526 L 3.945,13.519 c -2.69,-0.732 -5.454,0.89 -6.178,3.61 -0.721,2.723 0.881,5.518 3.564,6.255 h 0.023 c -0.92,2.686 -1.997,5.309 -3.212,7.84 l -0.014,-0.007 c -2.415,-1.41 -5.493,-0.577 -6.889,1.865 -1.396,2.444 -0.568,5.565 1.847,6.981 -1.565,2.346 -3.275,4.589 -5.105,6.724 -1.971,-1.987 -5.159,-1.987 -7.128,0 -1.971,1.988 -1.971,5.225 0,7.225 -2.116,1.846 -4.333,3.577 -6.65,5.165 v -0.005 c -1.398,-2.436 -4.477,-3.282 -6.885,-1.865 -2.415,1.41 -3.244,4.527 -1.851,6.967 l 0.005,0.013 c -2.499,1.236 -5.085,2.321 -7.744,3.251 v -0.013 c -0.723,-2.725 -3.494,-4.34 -6.178,-3.61 -2.689,0.725 -4.286,3.526 -3.57,6.25 l 0.005,0.012 c -2.716,0.527 -5.493,0.899 -8.313,1.105 0,-2.827 -2.26,-5.11 -5.036,-5.11 -2.791,0 -5.047,2.283 -5.047,5.11 -2.824,-0.206 -5.594,-0.578 -8.312,-1.105 v -0.012 c 0.723,-2.718 -0.871,-5.525 -3.564,-6.25 -2.692,-0.73 -5.454,0.885 -6.175,3.61 v 0.02 c -2.667,-0.937 -5.253,-2.022 -7.755,-3.258 l 0.007,-0.006 c 1.393,-2.447 0.564,-5.564 -1.842,-6.974 -2.417,-1.417 -5.498,-0.571 -6.887,1.865 l -0.007,0.005 c -2.316,-1.588 -4.536,-3.319 -6.648,-5.165 1.975,-2 1.969,-5.23 0.006,-7.218 -1.976,-1.994 -5.165,-1.994 -7.133,-0.007 v 0.007 c -1.833,-2.142 -3.539,-4.385 -5.11,-6.731 h 0.007 c 2.41,-1.416 3.237,-4.53 1.846,-6.975 -1.4,-2.448 -4.478,-3.281 -6.887,-1.871 l -0.013,0.007 c -1.221,-2.531 -2.288,-5.154 -3.215,-7.84 h 0.019 c 2.692,-0.732 4.286,-3.532 3.563,-6.25 -0.719,-2.725 -3.487,-4.347 -6.175,-3.608 h -0.006 c -0.52,-2.757 -0.888,-5.563 -1.084,-8.417 2.782,0 5.035,-2.289 5.035,-5.109 0.007,-2.814 -2.253,-5.102 -5.035,-5.102 0.196,-2.853 0.564,-5.662 1.084,-8.412 h 0.006 c 2.688,0.726 5.456,-0.89 6.175,-3.603 0.723,-2.722 -0.871,-5.53 -3.563,-6.255 h -0.019 c 0.917,-2.693 1.994,-5.314 3.215,-7.847 l 0.005,0.007 c 2.417,1.41 5.495,0.571 6.895,-1.87 1.391,-2.444 0.564,-5.558 -1.846,-6.969 h -0.007 c 1.571,-2.352 3.277,-4.595 5.11,-6.737 1.968,1.994 5.157,1.994 7.127,0 1.969,-1.989 1.969,-5.225 0,-7.212 2.112,-1.858 4.332,-3.583 6.648,-5.172 v 0.007 c 1.396,2.441 4.477,3.274 6.894,1.871 2.406,-1.418 3.235,-4.539 1.842,-6.981 l -0.007,-0.014 c 2.502,-1.229 5.088,-2.313 7.748,-3.249 l 0.007,0.019 c 0.721,2.719 3.483,4.34 6.175,3.603 2.686,-0.726 4.28,-3.519 3.564,-6.243 l -0.007,-0.005 c 2.725,-0.535 5.495,-0.906 8.319,-1.106 0,2.821 2.256,5.104 5.041,5.104 2.782,0 5.042,-2.283 5.042,-5.097 v -0.007 c 2.82,0.2 5.59,0.571 8.308,1.106 v 0.005 c -0.716,2.724 0.881,5.517 3.564,6.243 2.69,0.737 5.454,-0.884 6.179,-3.603 l 0.005,-0.019 c 2.659,0.936 5.239,2.02 7.744,3.249 l -0.005,0.014 c -1.393,2.442 -0.564,5.563 1.846,6.974 2.406,1.41 5.492,0.577 6.89,-1.864 v -0.007 c 2.317,1.589 4.534,3.314 6.65,5.166 V -54 c -1.971,1.987 -1.971,5.223 0,7.212 1.969,1.994 5.157,1.994 7.128,0 1.83,2.135 3.54,4.378 5.105,6.732 v 0.005 c -2.415,1.405 -3.243,4.525 -1.847,6.969 1.389,2.441 4.474,3.273 6.884,1.87 l 0.019,-0.012 c 1.215,2.538 2.292,5.152 3.212,7.846 l -0.023,0.006 c -2.683,0.725 -4.285,3.526 -3.564,6.244 0.717,2.724 3.488,4.34 6.178,3.614 h 0.014 c 0.515,2.75 0.878,5.559 1.077,8.412 C 2.251,-5.102 -0.005,-2.814 0,0"
          />
        </g>
        <g transform="translate(87.7876,60.4176)" id="g24">
          <path
            id="path26"
            style="fill:#ffffff;fill-opacity:1;fill-rule:nonzero;stroke:none"
            d="m 0,0 c -2.724,0 -4.932,2.237 -4.932,4.994 0,2.762 2.208,4.993 4.932,4.993 2.722,0 4.936,-2.231 4.936,-4.993 C 4.936,2.237 2.722,0 0,0 M 6.792,52.838 H -6.919 l -10.905,-82.67 h 11.889 l 2.557,20.089 h 6.782 l 2.561,-20.089 h 11.807 z"
          />
        </g>
        <g transform="translate(52.3148,113.7563)" id="g28">
          <path
            id="path30"
            style="fill:#ffffff;fill-opacity:1;fill-rule:nonzero;stroke:none"
            d="m 0,0 c -4.853,0 -8.555,-1.391 -11.116,-4.18 -2.558,-2.787 -3.84,-6.493 -3.84,-11.121 v -53.66 c 0,-4.902 1.183,-8.583 3.551,-11.031 2.372,-2.456 6.138,-3.686 11.317,-3.686 4.629,0 8.206,1.243 10.741,3.724 2.533,2.481 3.798,6.114 3.798,10.916 v 24.995 H -0.587 v -9.943 h 3.801 v -15.646 c 0,-0.944 -0.346,-1.713 -1.049,-2.297 -0.698,-0.583 -1.583,-0.876 -2.659,-0.876 -1.397,0 -2.291,0.358 -2.665,1.088 -0.374,0.718 -0.566,1.473 -0.566,2.256 v 54.16 c 0,0.391 0.055,0.846 0.168,1.378 0.102,0.532 0.292,1.019 0.564,1.469 0.268,0.441 0.634,0.82 1.089,1.128 0.459,0.307 1.063,0.453 1.816,0.453 v -0.011 c 0.062,0.006 0.106,0.011 0.164,0.011 0.756,0 1.366,-0.146 1.821,-0.453 0.458,-0.308 0.821,-0.687 1.096,-1.128 0.268,-0.45 0.452,-0.937 0.564,-1.469 0.103,-0.532 0.157,-0.987 0.157,-1.378 v -12.488 h 11.238 v 12.488 c 0,4.628 -1.28,8.334 -3.841,11.121 C 8.544,-1.391 4.842,0 0,0"
          />
        </g>
      </g>
    </g>
  </g>
</svg>
